<?xml version="1.0" encoding="utf-8"?>
<!-- Generator: Adobe Illustrator 18.0.0, SVG Export Plug-In . SVG Version: 6.00 Build 0)  -->
<!DOCTYPE svg PUBLIC "-//W3C//DTD SVG 1.1//EN" "http://www.w3.org/Graphics/SVG/1.1/DTD/svg11.dtd">
<svg version="1.1" id="Ebene_1" xmlns="http://www.w3.org/2000/svg" xmlns:xlink="http://www.w3.org/1999/xlink" x="0px" y="0px"
	 viewBox="0 0 708.7 708.7" enable-background="new 0 0 708.7 708.7" xml:space="preserve">
<path fill="#FFFFFF" d="M708.7,680.3c0,15.6-12.8,28.3-28.3,28.3h-652C12.8,708.7,0,695.9,0,680.3v-652C0,12.8,12.8,0,28.3,0h652
	c15.6,0,28.3,12.8,28.3,28.3V680.3z"/>
<g>
	<path fill="#82B91E" d="M598.9,267.9C611,169.6,544.6,92.4,444.1,92.4h-74.9c-4.9,0-9.8,2-13.7,5.2c-3.9,3.2-6.8,7.7-7.9,12.6
		c-2.1,9.8,4.2,17.8,14,17.8h74.9c86.8,0,142.4,70.6,124,157.4l-5.3,25.1l0.3-0.5c-1.6,9.4,4.6,17,14.2,17c8.9,0,17.7-6.5,20.8-15
		l1.2-5.6l4.4-20.9C597.3,279.5,598.2,273.7,598.9,267.9z"/>
	<path fill="#82B91E" d="M428.9,163.5H285c-9.8,0-19.5,8-21.5,17.8c-2.1,9.7,4.1,17.6,13.7,17.8h0.3h143.9c47.6,0,78.1,38.7,68,86.3
		l-16.3,76.8c-2.1,9.8,4.2,17.8,14,17.8c9.8,0,19.5-8,21.5-17.8l9-42.5l7.3-34.3C539.2,218.2,496.1,163.5,428.9,163.5z"/>
	<path fill="#82B91E" d="M413.8,234.6H212.5c-14,0-27.9,5.7-39,14.9c-11.1,9.2-19.6,21.9-22.5,35.9l-21.6,101.6
		c-5.9,27.9,12,50.8,40,50.8h201.3c14,0,27.9-5.7,39-14.9c11.2-9.2,19.6-21.9,22.5-35.9l21.6-101.6
		C459.8,257.4,441.8,234.6,413.8,234.6z M389.1,383.3c-1.6,7.7-9.5,14.2-17.1,14.2H185.2c-7.7,0-12.8-6.5-11.1-14.2l20-94.3
		c1.6-7.7,9.5-14.1,17.1-14.1H398c7.7,0,12.8,6.5,11.1,14.1L389.1,383.3z"/>
	<path fill="#1A171B" d="M104,610.5c-0.7,3.2-2.9,5-5.5,5H84.2c-2.2,0-3.7-0.5-3.7-2.9c0-1.5,0.3-2.9,0.5-3.9l22.8-106.5
		c0.7-3.2,2.3-5.4,5.7-5.4h59.7c2.5,0,4.2,1.2,4.2,3.2c0,1.8-0.7,5.5-2.5,13.3c-0.7,2.7-2.3,3.9-5.5,3.9H124l-6.9,30.9h35.2
		c2.5,0,4.4,0.5,4.4,3c0,1.5-1,7-2.5,13.4c-0.7,2.9-2.3,3.9-5.5,3.9h-35.6L104,610.5z"/>
	<path fill="#1A171B" d="M227.3,615.6h-11.4c-3.7,0-4.5-1.3-4.5-3.4c0-0.7,0.2-2.2,0.3-2.9c-6.4,6-14.6,8.1-25.2,8.1
		c-15.8,0-25.2-8.4-25.2-26.3c0-16.4,5.5-40.3,19.5-51.7c8.2-6.7,17.4-8.7,29.9-8.7c7,0,14.3,1.8,17.1,4.7c0.8-2.3,1.8-4.2,5.5-4.2
		h10.9c2.9,0,4.4,1.7,4.4,3.9c0,1.2-0.3,3.4-0.8,5.7L233,610C232.2,614.2,231.2,615.6,227.3,615.6z M223.1,551.5
		c-2.5-1.3-7.7-2.2-11.9-2.2c-7.7,0-12.4,2-16.3,5.7c-6.4,6.4-10.1,20.1-10.1,30.4c0,9.6,3.9,13.1,12.2,13.1c4.9,0,9.6-0.7,13.9-3.4
		c1-0.7,2-1.3,2.5-2.2c0.5-1,1.2-2.2,1.3-3.4L223.1,551.5z"/>
	<path fill="#1A171B" d="M317.6,586.6c0,9.9-2.9,17.8-8.6,23.2c-6.2,5.5-15.6,7.9-28.5,7.9c-9.6,0-22.8-1.3-29.2-4.5
		c-1.5-0.7-2.5-1.8-2.5-3.4c0-2.5,1.7-7.9,3.4-11.9c0.8-2,2.2-3,4.7-3c1,0,3.5,0.5,4.5,0.8c6.5,2.2,13.9,3.2,21.3,3.2
		c6,0,9.2-0.8,10.7-2.5c1.7-1.7,1.8-3.2,1.8-5c0-3-1.3-4.7-8.4-6.9l-9.7-3.2c-10.9-3.4-17.9-9.1-17.9-20.1c0-9.4,2.9-18.1,10.9-24.2
		c6.2-4.7,15.1-7,27.8-7c6.7,0,15.3,0.5,21.6,2.3c2.2,0.7,3.2,2,3.2,3.7c0,1.3-1.2,8.4-2.5,12.4c-0.7,1.7-2.5,2.9-4.4,2.9
		c-1.2,0-3.4-0.3-4.4-0.5c-7-1.5-12.4-2-17.1-2c-5,0-8.2,0.7-10.2,1.8c-1.8,1.2-2.7,3.4-2.7,6c0,2.9,1.8,4.5,8.7,6.9l9.9,3.4
		C311.7,570.6,317.6,576.8,317.6,586.6z"/>
	<path fill="#1A171B" d="M358.5,584.5c-1,4.9-1.3,7.7-1.3,9.7c0,3,2.5,4.5,5.9,4.5c2.9,0,4.9-0.3,6.2-0.3c2,0,3.2,1.2,3.4,3.5
		c0.2,3,0.2,6.2,0.2,8.7c0,3-2.3,4.9-5.4,5.5c-3.9,0.8-9.4,1.3-14.3,1.3c-9.9,0-19.8-3.2-19.8-15.4c0-3.7,0.5-7.5,1.5-11.9l8.6-39.6
		h-7.2c-2.5,0-3.7-1.2-3.7-3c0-1.5,0.3-3.9,2-11.1c0.7-2.7,2.3-4.5,5.4-4.5h7.9c0-0.2,1.5-7,4.4-18.1c0.8-3,2.3-5,5.2-5h13.1
		c2,0,3.2,0.8,3.2,3.2c0,1-0.3,3-0.5,4l-3.5,15.9h11.6c3,0,3.9,1.2,3.9,3c0,1-0.3,3.9-2,11.9c-0.7,2.9-2.5,3.7-5.4,3.7h-11.7
		L358.5,584.5z"/>
	<path fill="#1A171B" d="M388.4,615.4c-3,0-4-1.5-4-3.5c0-0.8,0.3-2.2,0.5-2.9l22.6-106.7c0.7-3,2.2-5.4,5.9-5.4h27
		c5.2,0,13.9,0.3,18.1,0.8c15.8,2,22.8,10.6,22.8,23.3c0,16.1-6.7,27.7-22.6,32.2c10.6,2.2,16.1,10.1,16.1,22.6
		c0,15.6-7,29.5-23.5,35.6c-7,2.5-19.6,3.9-35.6,3.9H388.4z M421.4,595.6c7.7,0,15.1-0.5,18.6-1.7c7.4-2.7,10.7-9.7,10.7-17.4
		c0-5.5-2.2-9.2-6.2-10.9c-3.5-1.5-8.2-1.8-14.8-1.8h-12.2l-6.9,31.9H421.4z M432.5,544.8c6.5,0,11.7-0.5,14.8-1.5
		c7.4-2.3,10.2-8.9,10.2-15.4c0-6.9-3.4-9.6-7.4-10.7c-3-0.8-8.6-1-13.9-1h-8.4l-6.2,28.7H432.5z"/>
	<path fill="#1A171B" d="M487.5,615.6c-2.3,0-3.4-1-3.4-3.2c0-1,0.3-2.5,0.5-3.7l15.4-72.1c0.7-2.9,2-4.7,5-4.7h14.1
		c2.5,0,3.4,1.3,3.4,3.2c0,1-0.3,3.2-0.7,4.4l-15.3,71.5c-0.7,3.4-2.2,4.7-5,4.7H487.5z M524.6,514.1c-2.3,2.2-5.5,3.4-9.6,3.4
		c-6.2,0-10.6-2.3-10.6-9.1c0-3.9,1-8.7,3.7-11.6c2.7-2.7,5.9-4,10.2-4c6.2,0,10.7,2.2,10.7,9.4C529.1,505,527.8,510.9,524.6,514.1z
		"/>
	<path fill="#1A171B" d="M544.5,615.6h-13.9c-2.3,0-3.7-1.2-3.7-3.4c0-1.2,0.3-3,0.5-3.7l24.3-113.9c0.7-3,2-4.7,5-4.7h13.9
		c2.5,0,3.7,0.8,3.7,2.9c0,0.8-0.3,2.5-0.5,3.4l-24.5,114.7C548.7,614.1,547.4,615.6,544.5,615.6z"/>
	<path fill="#1A171B" d="M587.5,615.6h-13.9c-2.3,0-3.7-1.2-3.7-3.4c0-1.2,0.3-3,0.5-3.7l24.3-113.9c0.7-3,2-4.7,5-4.7h13.9
		c2.5,0,3.7,0.8,3.7,2.9c0,0.8-0.3,2.5-0.5,3.4l-24.5,114.7C591.7,614.1,590.3,615.6,587.5,615.6z"/>
</g>
</svg>
